# xmcd CD database file
#
# Track frame offsets:
#	150
#	27856
#	55266
#	75752
#	96309
#	117617
#	146877
#	173692
#	196686
#	224013
#
# Disc length: 3306 seconds
#
# Revision: 5
# Processed by: cddbd v1.5.1PL0 Copyright (c) Steve Scherf et al.
# Submitted via: CDex 1.51
#
DISCID=890ce80a
DTITLE=MY LITTLE LOVER - organic
DYEAR=2002
DGENRE=JPop
TTITLE0=DESTINY
TTITLE1=白いカイト
TTITLE2=未来ボリビア
TTITLE3=雨の音
TTITLE4=shooting star 〜シューティングスター〜
TTITLE5=Hello, Again 〜昔からある場所〜
TTITLE6=Free
TTITLE7=12月の天使達
TTITLE8=evergreen
TTITLE9=スロウな恋
EXTD=YEAR: 2002
EXTT0=
EXTT1=
EXTT2=
EXTT3=
EXTT4=
EXTT5=
EXTT6=
EXTT7=
EXTT8=
EXTT9=
PLAYORDER=
